<svg xmlns="http://www.w3.org/2000/svg" width="259.524" height="78.231" viewBox="0 0 1944 586">
  <defs>
    <style>
      .cls-1 {
        fill: #2f5b99;
      }

      .cls-1, .cls-2, .cls-4 {
        fill-rule: evenodd;
      }

      .cls-2, .cls-3 {
        fill: #4b8fef;
      }

      .cls-4 {
        fill: #fff;
      }
    </style>
  </defs>
  <path id="levimin" class="cls-1" d="M1229,202.986l10.39-48.8h53.62l-10.39,48.8H1229Zm5.56,226.367h-53.62l42.86-202.246h53.63Zm-213,0L991.869,227.107h59.371l10.4,149.179,74.77-149.179h56.78L1077.41,429.353h-55.85Zm-69.954-86.465H813.188q-5.383,30.432,10.019,42.676,9.276,7.609,24.678,7.607a45.989,45.989,0,0,0,28.574-9.277,64.5,64.5,0,0,0,12.8-13.916h53.994q-5.94,18-26.533,36.552-32.284,29.5-79.043,29.5-38.595,0-62.808-24.863t-12.339-80.9q11.133-52.507,43.7-80.528t75.054-28.017q25.231,0,43.51,9.463t27,29.873q8.163,18,6.494,41.748Q957.543,316.726,951.606,342.888Zm-53.53-66.7q-9.186-10.856-26.07-10.855-18.369,0-30.893,11.5t-19.2,31.172h82.2Q907.259,287.04,898.076,276.184ZM653.061,429.353l58.076-273.5h52.881l-58.076,273.5H653.061Z"/>
  <path id="levimin-2" data-name="levimin" class="cls-2" d="M1941.5,293.161l-28.95,136.192h-54.18l25.98-123.018q3.525-15.955.93-24.492-4.455-15.587-26.35-15.586-26.91,0-41.75,22.822-7.785,12.065-11.69,30.8L1782.3,429.353h-52.7l42.87-201.875h51.02l-6.31,29.5q13.545-15.587,24.12-22.451,18.93-12.248,43.98-12.247,31.35,0,47.78,16.421Q1949.47,255.125,1941.5,293.161Zm-269.04-90.175,10.39-48.8h53.62l-10.39,48.8h-53.62Zm5.56,226.367H1624.4l42.86-202.246h53.62Zm-103.35,0h-54.18l27.28-128.77q2.4-11.5.37-18.926-4.08-14.1-23.01-14.1-21.9,0-34.14,18.183a68.982,68.982,0,0,0-9.28,23.194l-25.42,120.42h-53.25l25.42-120.42q3.9-18,1.86-26.162-3.525-14.656-23.01-14.659-22.635,0-33.59,14.659-5.94,8.349-9.46,24.863l-25.79,121.719h-53.62l42.86-201.875h51.4l-6.31,29.5q13.17-15.769,23.38-22.451,17.8-11.873,42.3-11.875,23.19,0,35.44,10.205,9.465,9.462,12.25,24.306,14.1-17.813,31.35-26.162a89.336,89.336,0,0,1,38.04-8.349,62.318,62.318,0,0,1,25.24,5.195q11.865,5.2,19.85,18.183,6.12,10.576,5.94,25.977-0.375,10.206-4.46,29.873Z"/>
  <circle id="Elipse_1" data-name="Elipse 1" class="cls-3" cx="283.5" cy="295.5" r="267.5"/>
  <path id="Ret창ngulo_Arredondado_1_copiar_2" data-name="Ret창ngulo Arredondado 1 copiar 2" class="cls-4" d="M281,0h20a20,20,0,0,1,20,20V263H561a20,20,0,0,1,20,20v20a20,20,0,0,1-20,20H261V20A20,20,0,0,1,281,0Z"/>
  <path id="Ret창ngulo_Arredondado_1_copiar" data-name="Ret창ngulo Arredondado 1 copiar" class="cls-1" d="M300,586H280a20,20,0,0,1-20-20V323H20A20,20,0,0,1,0,303V283a20,20,0,0,1,20-20H320V566A20,20,0,0,1,300,586Z"/>
</svg>
